<svg width="173" height="50" viewBox="0 0 173 50" fill="none" xmlns="http://www.w3.org/2000/svg">
<path d="M0 8C0 3.58172 3.58172 0 8 0H165C169.418 0 173 3.58172 173 8V42C173 46.4183 169.418 50 165 50H8C3.58172 50 0 46.4183 0 42V8Z" fill="#34FFCE"/>
<g clip-path="url(#clip0)">
<path d="M46.1668 32.5V30.8333C46.1668 29.9493 45.8156 29.1014 45.1905 28.4763C44.5654 27.8512 43.7176 27.5 42.8335 27.5H36.1668C35.2828 27.5 34.4349 27.8512 33.8098 28.4763C33.1847 29.1014 32.8335 29.9493 32.8335 30.8333V32.5" stroke="#0D114F" stroke-width="2" stroke-linecap="round" stroke-linejoin="round"/>
<path d="M39.4998 24.1667C41.3408 24.1667 42.8332 22.6743 42.8332 20.8333C42.8332 18.9924 41.3408 17.5 39.4998 17.5C37.6589 17.5 36.1665 18.9924 36.1665 20.8333C36.1665 22.6743 37.6589 24.1667 39.4998 24.1667Z" stroke="#0D114F" stroke-width="2" stroke-linecap="round" stroke-linejoin="round"/>
<path d="M51.1665 32.5V30.8333C51.166 30.0948 50.9201 29.3773 50.4676 28.7936C50.0152 28.2099 49.3816 27.793 48.6665 27.6083" stroke="#0D114F" stroke-width="2" stroke-linecap="round" stroke-linejoin="round"/>
<path d="M45.3335 17.6083C46.0505 17.7919 46.686 18.2089 47.1399 18.7936C47.5937 19.3783 47.84 20.0974 47.84 20.8375C47.84 21.5776 47.5937 22.2967 47.1399 22.8814C46.686 23.4661 46.0505 23.8831 45.3335 24.0667" stroke="#0D114F" stroke-width="2" stroke-linecap="round" stroke-linejoin="round"/>
</g>
<path d="M62.592 25.416C62.592 24.328 62.8427 23.352 63.344 22.488C63.856 21.624 64.544 20.952 65.408 20.472C66.2827 19.9813 67.2373 19.736 68.272 19.736C69.456 19.736 70.5067 20.0293 71.424 20.616C72.352 21.192 73.024 22.0133 73.44 23.08H71.248C70.96 22.4933 70.56 22.056 70.048 21.768C69.536 21.48 68.944 21.336 68.272 21.336C67.536 21.336 66.88 21.5013 66.304 21.832C65.728 22.1627 65.2747 22.6373 64.944 23.256C64.624 23.8747 64.464 24.5947 64.464 25.416C64.464 26.2373 64.624 26.9573 64.944 27.576C65.2747 28.1947 65.728 28.6747 66.304 29.016C66.88 29.3467 67.536 29.512 68.272 29.512C68.944 29.512 69.536 29.368 70.048 29.08C70.56 28.792 70.96 28.3547 71.248 27.768H73.44C73.024 28.8347 72.352 29.656 71.424 30.232C70.5067 30.808 69.456 31.096 68.272 31.096C67.2267 31.096 66.272 30.856 65.408 30.376C64.544 29.8853 63.856 29.208 63.344 28.344C62.8427 27.48 62.592 26.504 62.592 25.416ZM77.399 23.464C77.6657 23.016 78.0177 22.6693 78.455 22.424C78.903 22.168 79.431 22.04 80.039 22.04V23.928H79.575C78.8603 23.928 78.3163 24.1093 77.943 24.472C77.5803 24.8347 77.399 25.464 77.399 26.36V31H75.575V22.184H77.399V23.464ZM82.6436 21.016C82.313 21.016 82.0356 20.904 81.8116 20.68C81.5876 20.456 81.4756 20.1787 81.4756 19.848C81.4756 19.5173 81.5876 19.24 81.8116 19.016C82.0356 18.792 82.313 18.68 82.6436 18.68C82.9636 18.68 83.2356 18.792 83.4596 19.016C83.6836 19.24 83.7956 19.5173 83.7956 19.848C83.7956 20.1787 83.6836 20.456 83.4596 20.68C83.2356 20.904 82.9636 21.016 82.6436 21.016ZM83.5396 22.184V31H81.7156V22.184H83.5396ZM85.3264 26.552C85.3264 25.6667 85.5077 24.8827 85.8704 24.2C86.2437 23.5173 86.745 22.9893 87.3744 22.616C88.0144 22.232 88.7184 22.04 89.4864 22.04C90.1797 22.04 90.7824 22.1787 91.2944 22.456C91.817 22.7227 92.233 23.0587 92.5424 23.464V22.184H94.3824V31H92.5424V29.688C92.233 30.104 91.8117 30.4507 91.2784 30.728C90.745 31.0053 90.137 31.144 89.4544 31.144C88.697 31.144 88.0037 30.952 87.3744 30.568C86.745 30.1733 86.2437 29.6293 85.8704 28.936C85.5077 28.232 85.3264 27.4373 85.3264 26.552ZM92.5424 26.584C92.5424 25.976 92.4144 25.448 92.1584 25C91.913 24.552 91.5877 24.2107 91.1824 23.976C90.777 23.7413 90.3397 23.624 89.8704 23.624C89.401 23.624 88.9637 23.7413 88.5584 23.976C88.153 24.2 87.8224 24.536 87.5664 24.984C87.321 25.4213 87.1984 25.944 87.1984 26.552C87.1984 27.16 87.321 27.6933 87.5664 28.152C87.8224 28.6107 88.153 28.9627 88.5584 29.208C88.9744 29.4427 89.4117 29.56 89.8704 29.56C90.3397 29.56 90.777 29.4427 91.1824 29.208C91.5877 28.9733 91.913 28.632 92.1584 28.184C92.4144 27.7253 92.5424 27.192 92.5424 26.584ZM98.6021 23.464C98.8688 23.016 99.2208 22.6693 99.6581 22.424C100.106 22.168 100.634 22.04 101.242 22.04V23.928H100.778C100.063 23.928 99.5195 24.1093 99.1461 24.472C98.7835 24.8347 98.6021 25.464 98.6021 26.36V31H96.7781V22.184H98.6021V23.464ZM110.275 31.144C109.582 31.144 108.958 31.0213 108.403 30.776C107.859 30.52 107.427 30.1787 107.107 29.752C106.787 29.3147 106.616 28.8293 106.595 28.296H108.483C108.515 28.6693 108.691 28.984 109.011 29.24C109.342 29.4853 109.752 29.608 110.243 29.608C110.755 29.608 111.15 29.512 111.427 29.32C111.715 29.1173 111.859 28.8613 111.859 28.552C111.859 28.2213 111.699 27.976 111.379 27.816C111.07 27.656 110.574 27.48 109.891 27.288C109.23 27.1067 108.691 26.9307 108.275 26.76C107.859 26.5893 107.496 26.328 107.187 25.976C106.888 25.624 106.739 25.16 106.739 24.584C106.739 24.1147 106.878 23.688 107.155 23.304C107.432 22.9093 107.827 22.6 108.339 22.376C108.862 22.152 109.459 22.04 110.131 22.04C111.134 22.04 111.939 22.296 112.547 22.808C113.166 23.3093 113.496 23.9973 113.539 24.872H111.715C111.683 24.4773 111.523 24.1627 111.235 23.928C110.947 23.6933 110.558 23.576 110.067 23.576C109.587 23.576 109.219 23.6667 108.963 23.848C108.707 24.0293 108.579 24.2693 108.579 24.568C108.579 24.8027 108.664 25 108.835 25.16C109.006 25.32 109.214 25.448 109.459 25.544C109.704 25.6293 110.067 25.7413 110.547 25.88C111.187 26.0507 111.71 26.2267 112.115 26.408C112.531 26.5787 112.888 26.8347 113.187 27.176C113.486 27.5173 113.64 27.9707 113.651 28.536C113.651 29.0373 113.512 29.4853 113.235 29.88C112.958 30.2747 112.563 30.584 112.051 30.808C111.55 31.032 110.958 31.144 110.275 31.144ZM115.014 26.552C115.014 25.6667 115.195 24.8827 115.558 24.2C115.931 23.5173 116.433 22.9893 117.062 22.616C117.702 22.232 118.406 22.04 119.174 22.04C119.867 22.04 120.47 22.1787 120.982 22.456C121.505 22.7227 121.921 23.0587 122.23 23.464V22.184H124.07V31H122.23V29.688C121.921 30.104 121.499 30.4507 120.966 30.728C120.433 31.0053 119.825 31.144 119.142 31.144C118.385 31.144 117.691 30.952 117.062 30.568C116.433 30.1733 115.931 29.6293 115.558 28.936C115.195 28.232 115.014 27.4373 115.014 26.552ZM122.23 26.584C122.23 25.976 122.102 25.448 121.846 25C121.601 24.552 121.275 24.2107 120.87 23.976C120.465 23.7413 120.027 23.624 119.558 23.624C119.089 23.624 118.651 23.7413 118.246 23.976C117.841 24.2 117.51 24.536 117.254 24.984C117.009 25.4213 116.886 25.944 116.886 26.552C116.886 27.16 117.009 27.6933 117.254 28.152C117.51 28.6107 117.841 28.9627 118.246 29.208C118.662 29.4427 119.099 29.56 119.558 29.56C120.027 29.56 120.465 29.4427 120.87 29.208C121.275 28.9733 121.601 28.632 121.846 28.184C122.102 27.7253 122.23 27.192 122.23 26.584ZM128.29 19.16V31H126.466V19.16H128.29ZM130.076 26.552C130.076 25.6667 130.258 24.8827 130.62 24.2C130.994 23.5173 131.495 22.9893 132.124 22.616C132.764 22.232 133.468 22.04 134.236 22.04C134.93 22.04 135.532 22.1787 136.044 22.456C136.567 22.7227 136.983 23.0587 137.292 23.464V22.184H139.132V31H137.292V29.688C136.983 30.104 136.562 30.4507 136.028 30.728C135.495 31.0053 134.887 31.144 134.204 31.144C133.447 31.144 132.754 30.952 132.124 30.568C131.495 30.1733 130.994 29.6293 130.62 28.936C130.258 28.232 130.076 27.4373 130.076 26.552ZM137.292 26.584C137.292 25.976 137.164 25.448 136.908 25C136.663 24.552 136.338 24.2107 135.932 23.976C135.527 23.7413 135.09 23.624 134.62 23.624C134.151 23.624 133.714 23.7413 133.308 23.976C132.903 24.2 132.572 24.536 132.316 24.984C132.071 25.4213 131.948 25.944 131.948 26.552C131.948 27.16 132.071 27.6933 132.316 28.152C132.572 28.6107 132.903 28.9627 133.308 29.208C133.724 29.4427 134.162 29.56 134.62 29.56C135.09 29.56 135.527 29.4427 135.932 29.208C136.338 28.9733 136.663 28.632 136.908 28.184C137.164 27.7253 137.292 27.192 137.292 26.584Z" fill="#0D114F"/>
<path d="M8 2H165V-2H8V2ZM171 8V42H175V8H171ZM165 48H8V52H165V48ZM2 42V8H-2V42H2ZM8 48C4.68629 48 2 45.3137 2 42H-2C-2 47.5228 2.47715 52 8 52V48ZM171 42C171 45.3137 168.314 48 165 48V52C170.523 52 175 47.5228 175 42H171ZM165 2C168.314 2 171 4.68629 171 8H175C175 2.47715 170.523 -2 165 -2V2ZM8 -2C2.47715 -2 -2 2.47715 -2 8H2C2 4.68629 4.68629 2 8 2V-2Z" fill="#34FFCE"/>
<defs>
<clipPath id="clip0">
<rect width="20" height="20" fill="white" transform="translate(32 15)"/>
</clipPath>
</defs>
</svg>
